<svg width="101" height="32" viewBox="0 0 101 32" fill="none" xmlns="http://www.w3.org/2000/svg">
<path d="M12.9802 15.9537H3.44078C2.98641 15.9754 2.53129 15.9308 2.08977 15.8213C1.68966 15.7379 1.31455 15.5623 0.994301 15.3084C0.674049 15.0544 0.4175 14.7293 0.245078 14.3587C0.0726569 13.9882 -0.0108748 13.5825 0.00113367 13.174C0.0131421 12.7654 0.120359 12.3653 0.314248 12.0056C0.682737 11.3108 1.16641 10.6836 1.74468 10.1506C4.20942 7.63295 6.64768 5.14269 9.11147 2.65054C9.76253 1.93779 10.4813 1.28996 11.2576 0.716189C11.742 0.269702 12.3727 0.015288 13.0313 0.000667023C13.69 -0.013954 14.3313 0.212222 14.8351 0.636773C15.2141 0.877958 15.5769 1.14355 15.9214 1.43188C20.0283 4.77019 24.1088 8.13592 28.212 11.4742C28.4176 11.6011 28.5774 11.7903 28.668 12.0142C28.7587 12.2382 28.7754 12.4852 28.7159 12.7194C28.666 12.8978 28.5679 13.0591 28.4323 13.1854C28.2967 13.3116 28.1288 13.398 27.9473 13.4351C27.7353 13.4717 27.5174 13.4545 27.3138 13.3852C27.1101 13.3158 26.9271 13.1964 26.7816 13.038C24.0786 10.8124 21.3491 8.58595 18.6509 6.38688C17.3528 5.32705 16.0802 4.26722 14.7822 3.23387C13.4586 2.20051 12.7155 2.17404 11.4968 3.36623C9.3223 5.51235 7.20454 7.68495 5.08394 9.8585C4.28884 10.6536 3.49373 11.4487 2.75251 12.2693C2.43485 12.6135 2.01035 13.0115 2.2486 13.5145C2.51332 14.0449 3.09948 13.9645 3.59962 13.9645H23.2882C24.0685 13.9192 24.8404 14.1452 25.4731 14.604C26.1059 15.0629 26.5604 15.7264 26.7598 16.4822C26.8256 16.7956 26.8523 17.1161 26.8392 17.4361V28.1157C26.8609 28.5972 26.7788 29.0777 26.5985 29.5248C26.4182 29.9718 26.144 30.3748 25.7943 30.7065C25.4446 31.0383 25.0277 31.291 24.5718 31.4475C24.116 31.604 23.6318 31.6607 23.152 31.6138H4.28884C3.48026 31.6967 2.66829 31.4926 1.99506 31.0371C1.32184 30.5817 0.830257 29.9039 0.606386 29.1226C0.55417 28.9597 0.527383 28.7897 0.52697 28.6187C0.52697 26.7902 0.500498 24.9617 0.52697 23.1352C0.527444 23.0007 0.554677 22.8678 0.607083 22.744C0.659488 22.6202 0.736017 22.5081 0.832204 22.4142C0.928391 22.3203 1.04231 22.2465 1.16732 22.1971C1.29233 22.1477 1.42593 22.1236 1.56032 22.1264C1.69663 22.1208 1.83266 22.1427 1.96035 22.1907C2.08804 22.2387 2.20478 22.3119 2.30364 22.4059C2.40249 22.4999 2.48145 22.6128 2.53582 22.7379C2.5902 22.863 2.61887 22.9978 2.62015 23.1342C2.64662 24.7244 2.62015 26.2872 2.62015 27.8774C2.62015 29.1226 3.09287 29.5735 4.39567 29.5735H22.8902C24.1882 29.5735 24.6922 29.1235 24.6922 27.8774V17.7547C24.6922 16.4311 24.2194 15.9792 22.8637 15.9792C19.5783 15.9537 16.293 15.9537 12.9802 15.9537Z" fill="#81D8D0"/>
<path d="M83.9946 10.2812C83.9897 10.0937 84.0225 9.90712 84.0909 9.73247C84.1593 9.55782 84.2619 9.39864 84.3928 9.2643C84.5237 9.12996 84.6802 9.0232 84.853 8.9503C85.0258 8.8774 85.2115 8.83984 85.3991 8.83984C85.5866 8.83984 85.7723 8.8774 85.9451 8.9503C86.1179 9.0232 86.2744 9.12996 86.4053 9.2643C86.5362 9.39864 86.6388 9.55782 86.7072 9.73247C86.7756 9.90712 86.8084 10.0937 86.8035 10.2812C86.7891 10.6581 86.6293 11.0148 86.3577 11.2765C86.0861 11.5383 85.7238 11.6847 85.3466 11.6852C85.1653 11.683 84.9862 11.6448 84.8198 11.5728C84.6533 11.5008 84.5028 11.3965 84.377 11.2659C84.2513 11.1352 84.1527 10.9809 84.0871 10.8119C84.0214 10.6429 83.99 10.4625 83.9946 10.2812Z" fill="#81D8D0"/>
<path d="M43.6106 23.8761C43.6106 21.5447 43.5841 19.2123 43.6106 16.8799C43.5563 16.2423 43.7284 15.6059 44.0966 15.0825C44.4649 14.5592 45.0058 14.1823 45.6244 14.0181C45.8485 13.9486 46.0796 13.9042 46.3136 13.8858C48.2037 13.7664 50.1001 13.7929 51.9862 13.9652C52.6605 14.0635 53.2728 14.413 53.7003 14.9437C54.1277 15.4745 54.3388 16.1472 54.2911 16.827C54.344 19.2114 54.344 21.5967 54.2911 24.0123C54.2832 24.4249 54.1927 24.8319 54.0248 25.2089C53.857 25.586 53.6152 25.9256 53.3139 26.2077C53.0125 26.4897 52.6577 26.7085 52.2703 26.8511C51.883 26.9936 51.471 27.0571 51.0587 27.0376C49.4956 27.0641 47.9322 27.0641 46.3684 27.0376C45.838 27.0376 45.6262 27.17 45.6527 27.7269C45.6792 28.8396 45.6527 29.9524 45.6792 31.0359C45.6792 31.4065 45.5733 31.5398 45.1753 31.5662H44.2743C43.5586 31.5133 43.5586 31.2221 43.5586 29.976C43.6115 27.9623 43.6115 25.922 43.6115 23.8818L43.6106 23.8761ZM45.7038 20.9614V23.9291C45.7038 24.7506 45.8626 24.9095 46.6577 24.9095H50.447C51.6127 24.9095 52.196 24.4056 52.2225 23.2399C52.2755 21.3849 52.2755 19.53 52.2225 17.675C52.2386 17.4493 52.2042 17.2229 52.1217 17.0121C52.0393 16.8014 51.9109 16.6117 51.7459 16.4568C51.5809 16.302 51.3834 16.1859 51.1679 16.1169C50.9524 16.048 50.7242 16.028 50.4999 16.0584H47.7175C46.2871 16.0584 45.7038 16.6417 45.6773 18.0721C45.7038 19.0005 45.7038 19.981 45.7038 20.9614Z" fill="#81D8D0"/>
<path d="M67.9624 20.4567V23.9548C67.9921 24.3417 67.9428 24.7305 67.8172 25.0977C67.6917 25.4648 67.4927 25.8025 67.2323 26.0901C66.9719 26.3778 66.6556 26.6093 66.3028 26.7706C65.9499 26.932 65.5679 27.0197 65.18 27.0284C63.3707 27.1742 61.5517 27.1477 59.7475 26.949C59.0405 26.875 58.3877 26.536 57.9205 26.0001C57.4534 25.4642 57.2066 24.7713 57.2299 24.0607C57.1813 22.992 57.1989 21.9213 57.2828 20.8548C57.4719 19.1851 58.6603 18.2577 60.4623 18.2312C62.0783 18.2047 63.6947 18.2047 65.3114 18.2312C65.8153 18.2312 65.9212 18.0421 65.8418 17.5949C65.63 16.3763 65.232 16.0047 63.9868 16.0047H57.8132C57.3896 16.0047 57.2034 15.9253 57.2034 15.4214C57.2299 13.8047 57.2034 13.8047 58.7936 13.8047H64.2525C64.725 13.8037 65.1961 13.857 65.6565 13.9635C66.3181 14.079 66.9157 14.4296 67.3392 14.9507C67.7628 15.4719 67.9837 16.1286 67.9614 16.7998V20.4567H67.9624ZM62.6632 24.8823H64.3896C64.5831 24.9051 64.7793 24.8851 64.9642 24.8238C65.1492 24.7625 65.3184 24.6613 65.46 24.5274C65.6016 24.3935 65.712 24.2301 65.7835 24.0488C65.855 23.8676 65.8859 23.6728 65.8739 23.4783C65.9269 22.6275 65.8739 21.7822 65.9004 20.9342C65.9136 20.8499 65.9072 20.7638 65.8816 20.6824C65.8561 20.601 65.812 20.5266 65.753 20.4651C65.694 20.4035 65.6216 20.3564 65.5414 20.3274C65.4612 20.2984 65.3753 20.2883 65.2906 20.2979H60.7856C60.4545 20.2845 60.1308 20.3975 59.8799 20.614C59.629 20.8304 59.4698 21.1342 59.4346 21.4636C59.3234 22.1291 59.3046 22.8068 59.3788 23.4774C59.4086 23.8677 59.5877 24.2316 59.879 24.4931C60.1703 24.7546 60.5513 24.8937 60.9426 24.8814C61.5231 24.9078 62.1064 24.8814 62.6632 24.8814V24.8823Z" fill="#81D8D0"/>
<path d="M100.103 20.4577V23.9558C100.133 24.3426 100.084 24.7315 99.9583 25.0986C99.8328 25.4657 99.6337 25.8034 99.3734 26.0911C99.113 26.3787 98.7967 26.6103 98.4438 26.7716C98.091 26.9329 97.7089 27.0206 97.321 27.0294C95.5118 27.1752 93.6928 27.1486 91.8886 26.95C91.1905 26.8828 90.5442 26.552 90.0814 26.0251C89.6186 25.4981 89.374 24.8146 89.3974 24.1137C89.3356 23.0275 89.3533 21.9383 89.4503 20.8548C89.4863 20.4735 89.5972 20.1032 89.7766 19.7649C89.956 19.4266 90.2004 19.127 90.4957 18.8833C90.7911 18.6396 91.1316 18.4565 91.4978 18.3446C91.864 18.2327 92.2487 18.1942 92.6298 18.2312C94.22 18.2047 95.8358 18.2047 97.426 18.2312C97.9299 18.2312 98.0878 18.0988 98.0093 17.5949C97.7975 16.3763 97.3995 16.0047 96.1544 16.0047H89.9278C89.5307 16.0047 89.3709 15.8988 89.3709 15.4743C89.3709 13.8047 89.3444 13.8047 91.0141 13.8047H96.3926C96.8651 13.8037 97.3362 13.857 97.7966 13.9635C98.4574 14.076 99.0542 14.4267 99.474 14.9493C99.8939 15.4719 100.108 16.1303 100.075 16.7998C100.128 18.045 100.102 19.2371 100.102 20.4567L100.103 20.4577ZM95.1749 20.2989H93.0288C92.846 20.283 92.6618 20.3034 92.4869 20.3587C92.3119 20.414 92.1495 20.5033 92.0091 20.6214C91.8686 20.7394 91.7528 20.884 91.6682 21.0469C91.5836 21.2097 91.5319 21.3876 91.5161 21.5705C91.4278 22.1762 91.4189 22.7909 91.4896 23.3989C91.4966 23.6019 91.5444 23.8014 91.6302 23.9855C91.7159 24.1696 91.8379 24.3345 91.9887 24.4705C92.1396 24.6065 92.3163 24.7107 92.5083 24.7769C92.7003 24.8431 92.9037 24.8699 93.1063 24.8558H96.4711C96.6708 24.8803 96.8734 24.8599 97.0643 24.7962C97.2551 24.7325 97.4293 24.627 97.5742 24.4874C97.7191 24.3479 97.8311 24.1777 97.9019 23.9894C97.9728 23.8011 98.0007 23.5994 97.9838 23.3989C98.0103 22.5773 97.9838 21.7293 97.9838 20.9077C97.9838 20.4577 97.772 20.2714 97.322 20.2714C96.6583 20.3253 95.9123 20.2989 95.1749 20.2989Z" fill="#81D8D0"/>
<path d="M30.2031 20.38V17.3065C30.2296 15.1603 30.9718 14.2064 33.0914 13.9417C34.7651 13.7694 36.4521 13.7694 38.1258 13.9417C40.0072 14.1308 40.8818 15.1868 40.9347 17.1211C41.0573 17.7369 41.03 18.3731 40.8553 18.9761C40.5906 19.4488 39.7955 19.5065 39.2386 19.7447C37.2248 20.5956 35.1846 21.4143 33.1708 22.2624C32.8267 22.3948 32.2963 22.3948 32.3492 23.0046C32.4022 23.7467 32.5081 24.435 33.3032 24.7536C33.5992 24.864 33.9156 24.9092 34.2307 24.886H40.4043C40.8543 24.886 41.0141 25.0183 40.9612 25.4428C40.9082 25.9467 41.1729 26.6085 40.8553 26.9271C40.5111 27.2978 39.8484 27.033 39.318 27.0595C37.5425 27.086 35.7673 27.086 33.9924 27.0595C33.5215 27.0561 33.0517 27.0118 32.5884 26.9271C31.9095 26.798 31.299 26.4308 30.8668 25.8916C30.4345 25.3524 30.2089 24.6766 30.2305 23.9859V23.7968C30.2041 22.6576 30.2041 21.5183 30.2041 20.3791L30.2031 20.38ZM35.6866 16.0311C35.1562 16.0311 34.6268 16.0046 34.0964 16.0311C33.8734 16.0075 33.648 16.0323 33.4355 16.1037C33.223 16.1751 33.0284 16.2915 32.8649 16.4449C32.7014 16.5983 32.5729 16.7852 32.4882 16.9928C32.4034 17.2004 32.3644 17.4237 32.3738 17.6478C32.3209 18.3634 32.3474 19.0782 32.3474 19.7674C32.3474 20.4037 32.4003 20.4292 32.9836 20.191C34.6797 19.4753 36.4014 18.7605 38.0975 18.0713C38.2651 18.0262 38.416 17.933 38.5314 17.8033C38.6468 17.6736 38.7218 17.5129 38.7471 17.3411C38.7724 17.1694 38.747 16.9939 38.6739 16.8364C38.6008 16.6789 38.4832 16.5462 38.3357 16.4546C38.0239 16.1733 37.6163 16.0218 37.1965 16.0311H35.6866Z" fill="#81D8D0"/>
<path d="M81.5034 21.5961V26.5776C81.5034 26.9747 81.3975 27.0815 80.9995 27.0815C79.4093 27.108 79.4093 27.108 79.4093 25.5178V18.099C79.4093 16.5088 78.9054 16.0323 77.3161 16.0323H74.875C73.5769 16.0323 72.9936 16.6156 72.9936 17.9137C72.9936 20.75 72.9671 23.5579 72.9936 26.3932C72.9936 26.9501 72.8348 27.0825 72.3044 27.0825C70.9004 27.056 70.9004 27.0825 70.9004 25.652V17.1715C70.9004 15.0519 71.6955 14.045 73.7887 13.9126C75.5437 13.758 77.3098 13.7758 79.0614 13.9656C79.4046 13.98 79.7413 14.0635 80.0515 14.2112C80.3617 14.3588 80.6389 14.5676 80.8664 14.8249C81.094 15.0822 81.2673 15.3828 81.3759 15.7087C81.4846 16.0346 81.5263 16.3791 81.4986 16.7215V21.5971L81.5034 21.5961Z" fill="#81D8D0"/>
<path d="M13.4579 25.3594H22.8649C23.3376 25.3594 23.5267 25.4653 23.5012 25.9692C23.4482 26.7643 23.6336 27.5859 22.9179 28.2477C22.5957 28.5756 22.1588 28.7658 21.6992 28.778H5.16458C4.72739 28.7783 4.30581 28.6155 3.98233 28.3214C3.65885 28.0273 3.45674 27.6231 3.41554 27.1878C3.20376 25.3858 3.20376 25.3858 4.95281 25.3858C7.81368 25.3594 10.6225 25.3594 13.4579 25.3594Z" fill="#81D8D0"/>
<path d="M86.5105 21.5703V27.7969C86.5237 28.2311 86.4971 28.6656 86.4311 29.095C86.1399 30.6322 85.0536 31.4529 83.331 31.5862H83.2251C81.4496 31.6391 81.4231 31.6391 81.5555 29.8371C81.582 29.5459 81.6614 29.4401 81.979 29.4136C84.2046 29.2812 84.4438 29.0165 84.4438 26.7664V14.5486C84.4438 14.0182 84.5761 13.8594 85.133 13.8594C86.5634 13.8858 86.5634 13.8594 86.5634 15.2898C86.5105 17.3575 86.5105 19.4771 86.5105 21.5703Z" fill="#81D8D0"/>
<path d="M16.7687 24.5912C14.702 24.5912 12.6617 24.5647 10.595 24.5912C10.1223 24.5912 9.95874 24.4324 9.98521 23.9814C10.0117 23.487 10.0117 22.9915 9.98521 22.4971C9.95874 22.0471 10.1176 21.8873 10.595 21.8873C12.9 21.9138 15.1794 21.8873 17.4844 21.8873C18.8354 21.8873 20.2138 21.9138 21.5648 21.8873C22.7306 21.8608 23.658 22.7618 23.4727 24.3246C23.4198 24.6952 23.1286 24.5629 22.9159 24.5893L16.7687 24.5912Z" fill="#81D8D0"/>
<path d="M6.54112 24.5142H4.63324C4.48706 24.5305 4.34014 24.4908 4.22207 24.4031C4.104 24.3153 4.02357 24.1861 3.99697 24.0415C3.85623 23.512 3.87969 22.9524 4.06423 22.4366C4.24877 21.9208 4.58568 21.4732 5.03032 21.1532C5.45463 20.8408 5.9652 20.6674 6.49197 20.6568C7.01874 20.6461 7.5359 20.7987 7.9725 21.0936C8.42172 21.4058 8.76758 21.8448 8.96581 22.3546C9.16405 22.8645 9.20564 23.4219 9.08527 23.9554C9.08089 24.0389 9.05899 24.1205 9.02101 24.1949C8.98302 24.2694 8.9298 24.335 8.86479 24.3875C8.79979 24.44 8.72446 24.4783 8.6437 24.4998C8.56295 24.5213 8.47857 24.5256 8.39605 24.5123C7.78625 24.4877 7.15092 24.5142 6.54112 24.5142Z" fill="#81D8D0"/>
</svg>
